# xmcd
#
# Track frame offsets: 
#        150
#        15964
#        39103
#        54385
#        68010
#        91960
#        112797
#        130623
#        145975
#        166275
#        180840
#        195107
#        212700
#        224351
#        240051
#
# Disc length: 3456 seconds
#
# Revision: 0
# Processed by: cddbd v1.5.2PL0 Copyright (c) Steve Scherf et al.
# Submitted via: ExactAudioCopy v1.0b3
#
DISCID=ab0d7e0f
DTITLE=Stasys Daugirdas - Gėlių Vaikai
DYEAR=1970
DGENRE=Rock
TTITLE0=Gėlių Vaikai
TTITLE1=Rauda
TTITLE2=Saulės!
TTITLE3=Laisvės Pavėsy
TTITLE4=Gėlių Meilė
TTITLE5=Kirvis
TTITLE6=Apgaubia Vakaras Iš Lėto
TTITLE7=Kadaise Žemėj Buvo Daug Velnių
TTITLE8=Jūratė Ir Kastytis
TTITLE9=Nekankink Širdies
TTITLE10=Gyveno Duobkasys Kapuos
TTITLE11=Neklauskit Meilės Vardo
TTITLE12=Mano Bliuzas
TTITLE13=Sena Daina
TTITLE14=Išdykėlis
EXTD=
EXTT0=
EXTT1=
EXTT2=
EXTT3=
EXTT4=
EXTT5=
EXTT6=
EXTT7=
EXTT8=
EXTT9=
EXTT10=
EXTT11=
EXTT12=
EXTT13=
EXTT14=
PLAYORDER=
